<svg xmlns="http://www.w3.org/2000/svg" version="1.1" xmlns:xlink="http://www.w3.org/1999/xlink" xmlns:svgjs="http://svgjs.dev/svgjs" width="2000" height="1500" viewBox="0 0 2000 1500"><rect width="2000" height="1500" fill="#ffffff"></rect><g transform="matrix(0.75,0,0,0.75,249.090909090909,278.98548387096776)"><svg viewBox="0 0 396 248" data-background-color="#ffffff" preserveAspectRatio="xMidYMid meet" height="1252" width="2000" xmlns="http://www.w3.org/2000/svg" xmlns:xlink="http://www.w3.org/1999/xlink"><g id="tight-bounds" transform="matrix(1,0,0,1,0.2400000000000091,0.4000000000000057)"><svg viewBox="0 0 395.52 247.2" height="247.2" width="395.52"><g><svg></svg></g><g><svg viewBox="0 0 395.52 247.2" height="247.2" width="395.52"><g transform="matrix(1,0,0,1,75.54432,72.99957748956734)"><svg viewBox="0 0 244.43135999999998 101.2008450208653" height="101.2008450208653" width="244.43135999999998"><g><svg viewBox="0 0 244.43135999999998 101.2008450208653" height="101.2008450208653" width="244.43135999999998"><g><svg viewBox="0 0 244.43135999999998 101.2008450208653" height="101.2008450208653" width="244.43135999999998"><g><svg viewBox="0 0 244.43135999999998 101.2008450208653" height="101.2008450208653" width="244.43135999999998"><g id="textblocktransform"><svg viewBox="0 0 244.43135999999998 101.2008450208653" height="101.2008450208653" width="244.43135999999998" id="textblock"><g><svg viewBox="0 0 244.43135999999998 58.49998626856338" height="58.49998626856338" width="244.43135999999998"><g transform="matrix(1,0,0,1,0,0)"><svg width="244.43135999999998" viewBox="5.25 -36.89 156.16 37.38" height="58.49998626856338" data-palette-color="#b81d33"><path d="M22.44-34.96L22.44-34.96Q28.3-34.96 33.59-32.01L33.59-32.01 31.96-28.91Q30.1-29.88 27.64-30.59 25.17-31.3 22.66-31.3L22.66-31.3Q20.09-31.3 17.71-30.35 15.33-29.39 13.48-27.67 11.62-25.95 10.51-23.33 9.4-20.7 9.4-17.58L9.4-17.58Q9.4-13.45 11.23-10.16 13.06-6.86 16.28-5.03 19.51-3.2 23.49-3.2L23.49-3.2Q28.2-3.2 31.15-6.03L31.15-6.03 31.15-14.89 21.29-14.89 21.29-18.31 35.18-18.31 35.18-4.69Q34.52-3.93 33.65-3.22 32.79-2.51 31.24-1.59 29.69-0.66 27.42-0.09 25.15 0.49 22.51 0.49L22.51 0.49Q19.04 0.49 16.13-0.55 13.21-1.59 11.23-3.32 9.25-5.05 7.89-7.36 6.52-9.67 5.88-12.18 5.25-14.7 5.25-17.31L5.25-17.31Q5.25-20.04 5.94-22.62 6.64-25.2 8.08-27.44 9.52-29.69 11.54-31.36 13.55-33.03 16.36-34 19.17-34.96 22.44-34.96ZM42.87-30.08L42.87-34.69 47.6-34.69 47.6-30.08 42.87-30.08ZM43.23 0L43.23-24.12 47.24-24.12 47.24 0 43.23 0ZM54.8-11.65L54.8-11.65Q54.8-14.77 55.68-17.26 56.56-19.75 58.1-21.34 59.64-22.92 61.7-23.77 63.76-24.61 66.16-24.61L66.16-24.61Q69.04-24.61 71.99-23.32L71.99-23.32 71.99-36.89 76-36.89 76 0 73.21 0 72.55-1.51Q69.16 0.49 65.47 0.49L65.47 0.49Q63.96 0.49 62.52 0.12 61.08-0.24 59.66-1.15 58.25-2.05 57.18-3.41 56.12-4.76 55.46-6.88 54.8-9.01 54.8-11.65ZM66.79-2.81L66.79-2.81Q69.45-2.81 71.99-4.17L71.99-4.17 71.99-20.29Q69.38-21.46 66.74-21.46L66.74-21.46Q65.62-21.46 64.57-21.22 63.52-20.97 62.42-20.34 61.32-19.7 60.53-18.7 59.74-17.7 59.22-16.05 58.71-14.4 58.71-12.28L58.71-12.28Q58.71-10.08 59.25-8.36 59.79-6.64 60.62-5.62 61.45-4.59 62.57-3.93 63.69-3.27 64.72-3.04 65.74-2.81 66.79-2.81ZM95.4-24.58L95.4-24.58Q97.16-24.58 98.56-24.16 99.97-23.73 100.9-23.07 101.82-22.41 102.49-21.35 103.17-20.29 103.52-19.3 103.87-18.31 104.07-16.92 104.26-15.53 104.31-14.5 104.36-13.48 104.36-12.08L104.36-12.08 104.36-10.18 87.79-10.18Q87.79-8.86 88.38-7.56 88.98-6.25 90.07-5.16 91.15-4.08 92.92-3.39 94.69-2.71 96.84-2.71L96.84-2.71Q99.38-2.71 102.34-3.59L102.34-3.59 103.04-0.85Q99.11 0.49 95.33 0.49L95.33 0.49Q92.67 0.49 90.61-0.22 88.54-0.93 87.28-2.06 86.03-3.2 85.22-4.79 84.42-6.37 84.11-7.95 83.81-9.52 83.81-11.28L83.81-11.28Q83.81-13.99 84.47-16.24 85.12-18.48 86.25-20.01 87.37-21.53 88.87-22.58 90.37-23.63 92.02-24.11 93.67-24.58 95.4-24.58ZM94.55-21.12L94.55-21.12Q92.4-21.12 90.85-19.93 89.3-18.75 88.59-16.99 87.88-15.23 87.88-13.21L87.88-13.21 100.48-13.21Q100.48-21.12 94.55-21.12ZM122.45-24.58L122.45-24.58Q127.46-24.58 130.69-21.39 133.93-18.19 133.93-12.55L133.93-12.55Q133.93-6.57 130.62-3.04 127.31 0.49 122.06 0.49L122.06 0.49Q117.06 0.49 113.88-2.82 110.71-6.13 110.71-11.79L110.71-11.79Q110.71-17.63 113.94-21.11 117.18-24.58 122.45-24.58ZM122.11-21.17L122.11-21.17Q119.11-21.17 116.86-18.85 114.61-16.53 114.61-12.48L114.61-12.48Q114.61-8.45 116.81-5.69 119.01-2.93 122.5-2.93L122.5-2.93Q125.72-2.93 127.87-5.37 130.02-7.81 130.02-11.74L130.02-11.74Q130.02-13.99 129.32-15.82 128.63-17.65 127.49-18.8 126.36-19.95 124.97-20.56 123.57-21.17 122.11-21.17ZM141.49 0L141.49-24.12 144.3-24.12 145.18-22.07Q149.84-24.61 153.67-24.61L153.67-24.61Q155.65-24.61 157.12-23.99 158.58-23.36 159.39-22.42 160.19-21.48 160.67-20.06 161.14-18.63 161.28-17.33 161.41-16.04 161.41-14.38L161.41-14.38 161.41 0 157.41 0 157.41-14.65Q157.41-21 151.94-21L151.94-21Q149.11-21 145.5-19.12L145.5-19.12 145.5 0 141.49 0Z" opacity="1" transform="matrix(1,0,0,1,0,0)" fill="#000000" class="wordmark-text-0" data-fill-palette-color="primary" id="text-0"></path></svg></g></svg></g><g transform="matrix(1,0,0,1,0,72.31042902690075)"><svg viewBox="0 0 244.43135999999998 28.89041599396454" height="28.89041599396454" width="244.43135999999998"><g transform="matrix(1,0,0,1,0,0)"><svg width="244.43135999999998" viewBox="2.15 -37.15 397.61 47" height="28.89041599396454" data-palette-color="#b81d33"><path d="M14.2-33.45L14.2-33.45Q11.4-33.45 9.6-32.13 7.8-30.8 7.8-27.95L7.8-27.95Q7.8-26.65 8.15-25.65 8.5-24.65 9.33-23.85 10.15-23.05 11.5-22.33 12.85-21.6 14.85-20.85L14.85-20.85Q16.8-20.1 18.55-19.2 20.3-18.3 21.63-17 22.95-15.7 23.73-13.85 24.5-12 24.5-9.35L24.5-9.35Q24.5-7.3 23.68-5.45 22.85-3.6 21.38-2.23 19.9-0.85 17.85-0.05 15.8 0.75 13.35 0.75L13.35 0.75Q10.85 0.75 8.97 0.13 7.1-0.5 5.75-1.53 4.4-2.55 3.53-3.85 2.65-5.15 2.15-6.55L2.15-6.55 5.75-7.9Q6.1-6.9 6.68-5.95 7.25-5 8.15-4.28 9.05-3.55 10.33-3.1 11.6-2.65 13.4-2.65L13.4-2.65Q14.6-2.65 15.8-2.98 17-3.3 17.98-4.05 18.95-4.8 19.55-6.05 20.15-7.3 20.15-9.1L20.15-9.1Q20.15-11 19.68-12.25 19.2-13.5 18.18-14.45 17.15-15.4 15.5-16.15 13.85-16.9 11.55-17.85L11.55-17.85Q7.5-19.5 5.58-21.85 3.65-24.2 3.65-27.65L3.65-27.65Q3.65-29.55 4.35-31.23 5.05-32.9 6.4-34.13 7.75-35.35 9.68-36.05 11.6-36.75 14.1-36.75L14.1-36.75Q18.35-36.75 20.75-35.02 23.15-33.3 24.45-30.35L24.45-30.35 20.75-29.05Q19.9-31.15 18.4-32.3 16.9-33.45 14.2-33.45ZM30.55-13.5L30.55-13.5Q30.55-17.65 31.52-20.4 32.5-23.15 34.07-24.78 35.65-26.4 37.62-27.08 39.6-27.75 41.55-27.75L41.55-27.75Q43.45-27.75 45.4-27.1 47.35-26.45 48.92-24.83 50.5-23.2 51.5-20.45 52.5-17.7 52.5-13.5L52.5-13.5Q52.5-9.3 51.52-6.6 50.55-3.9 49-2.33 47.45-0.75 45.47-0.13 43.5 0.5 41.55 0.5L41.55 0.5Q39.65 0.5 37.67-0.13 35.7-0.75 34.12-2.35 32.55-3.95 31.55-6.65 30.55-9.35 30.55-13.5ZM34.75-13.5L34.75-13.5Q34.75-7.8 36.62-5.2 38.5-2.6 41.6-2.6L41.6-2.6Q44.7-2.6 46.52-5.15 48.35-7.7 48.35-13.5L48.35-13.5Q48.35-16.4 47.85-18.5 47.35-20.6 46.45-21.98 45.55-23.35 44.3-24 43.05-24.65 41.55-24.65L41.55-24.65Q38.6-24.65 36.67-21.93 34.75-19.2 34.75-13.5ZM72.95-35.5L71.05-32.8Q69.45-33.85 67.7-33.85L67.7-33.85Q65.84-33.85 65.12-32.83 64.4-31.8 64.4-30.05L64.4-30.05 64.4-27 70.65-27 70.65-23.75 64.4-23.75 64.4 0 60.4 0 60.4-23.75 56.15-23.75 56.65-27 60.4-27 60.4-30.15Q60.4-33.2 62.17-35.18 63.95-37.15 67.7-37.15L67.7-37.15Q69.15-37.15 70.52-36.68 71.9-36.2 72.95-35.5L72.95-35.5ZM86.19-3.55L87.19-0.5Q85.29 0.3 82.94 0.3L82.94 0.3Q79.64 0.3 77.94-1.5 76.24-3.3 76.24-6.45L76.24-6.45 76.24-23.75 71.99-23.75 72.49-27 76.29-27 76.54-33.5 80.24-33.5 80.24-27 86.04-27 86.04-23.75 80.24-23.75 80.24-6.65Q80.24-4.65 81.14-3.85 82.04-3.05 83.59-3.05L83.59-3.05Q84.34-3.05 84.87-3.18 85.39-3.3 86.19-3.55L86.19-3.55ZM118.99-27L122.94-27 116.34 0 111.34 0 105.99-22.5 100.69 0 95.54 0 88.94-27 93.04-27 98.24-4.15 103.54-27 108.69-27 113.94-4.25 118.99-27ZM144.74 0L141.29 0 141.09-3Q139.99-1.5 138.21-0.5 136.44 0.5 133.69 0.5L133.69 0.5Q132.24 0.5 130.76 0.08 129.29-0.35 128.11-1.28 126.94-2.2 126.19-3.65 125.44-5.1 125.44-7.2L125.44-7.2Q125.44-11.6 129.06-14.15 132.69-16.7 140.74-16.85L140.74-16.85 140.74-19.1Q140.74-21.5 139.56-23.08 138.39-24.65 135.59-24.65L135.59-24.65Q133.44-24.65 132.01-23.58 130.59-22.5 129.84-20.45L129.84-20.45 126.19-21.85Q127.39-24.55 129.79-26.15 132.19-27.75 135.69-27.75L135.69-27.75Q137.99-27.75 139.69-27.13 141.39-26.5 142.51-25.43 143.64-24.35 144.19-22.88 144.74-21.4 144.74-19.7L144.74-19.7 144.74 0ZM134.79-2.7L134.79-2.7Q136.69-2.7 138.14-3.55 139.59-4.4 140.74-5.7L140.74-5.7 140.74-13.7Q134.99-13.6 132.29-12.08 129.59-10.55 129.59-7.5L129.59-7.5Q129.59-4.95 131.11-3.83 132.64-2.7 134.79-2.7ZM156.74 0L152.74 0 152.74-27 156.39-27 156.54-23.2Q157.54-25.45 159.09-26.55 160.64-27.65 162.54-27.65L162.54-27.65Q163.24-27.65 163.74-27.6 164.24-27.55 164.94-27.3L164.94-27.3 163.94-23.55Q163.49-23.65 163.01-23.73 162.54-23.8 161.94-23.8L161.94-23.8Q160.94-23.8 160.16-23.38 159.39-22.95 158.76-22.2 158.14-21.45 157.64-20.48 157.14-19.5 156.74-18.45L156.74-18.45 156.74 0ZM185.43-6.5L188.58-4.55Q187.28-2.5 184.93-1 182.58 0.5 179.08 0.5L179.08 0.5Q176.63 0.5 174.63-0.33 172.63-1.15 171.18-2.85 169.73-4.55 168.93-7.13 168.13-9.7 168.13-13.25L168.13-13.25Q168.13-17.05 168.96-19.8 169.78-22.55 171.26-24.33 172.73-26.1 174.71-26.93 176.68-27.75 178.93-27.75L178.93-27.75Q181.43-27.75 183.31-26.93 185.18-26.1 186.43-24.28 187.68-22.45 188.31-19.6 188.93-16.75 188.93-12.7L188.93-12.7 172.23-12.7Q172.28-9.85 172.86-7.93 173.43-6 174.38-4.85 175.33-3.7 176.61-3.2 177.88-2.7 179.33-2.7L179.33-2.7Q180.53-2.7 181.51-3.08 182.48-3.45 183.23-4 183.98-4.55 184.53-5.23 185.08-5.9 185.43-6.5L185.43-6.5ZM178.93-24.65L178.93-24.65Q176.13-24.65 174.43-22.55 172.73-20.45 172.33-15.9L172.33-15.9 184.78-15.9Q184.68-18.35 184.26-20.03 183.83-21.7 183.08-22.73 182.33-23.75 181.31-24.2 180.28-24.65 178.93-24.65ZM209.93-14.35L194.68-14.35 194.68-17.95 209.93-17.95 209.93-14.35ZM233.43-19.95L233.43-16.65 221.68-16.65 221.68-3.4 234.93-3.4 234.93 0 217.43 0 217.43-36 234.93-36 234.93-32.6 221.68-32.6 221.68-19.95 233.43-19.95ZM245.93 0L241.93 0 241.93-27 245.33-27 245.63-23.45Q247.23-25.8 249.35-26.78 251.48-27.75 253.48-27.75L253.48-27.75Q255.23-27.75 256.68-27.28 258.13-26.8 259.15-25.7 260.18-24.6 260.75-22.83 261.32-21.05 261.32-18.45L261.32-18.45 261.32 0 257.32 0 257.32-17.7Q257.32-19.65 257.03-20.98 256.73-22.3 256.15-23.08 255.58-23.85 254.68-24.18 253.78-24.5 252.58-24.5L252.58-24.5Q250.58-24.5 248.93-23.3 247.28-22.1 245.93-20L245.93-20 245.93 0ZM288.22-29.6L288.72-25.75 282.82-25.75Q284.87-24.9 286.2-23.15 287.52-21.4 287.52-18.55L287.52-18.55Q287.52-16.2 286.65-14.5 285.77-12.8 284.37-11.7 282.97-10.6 281.22-10.08 279.47-9.55 277.77-9.55L277.77-9.55Q276.72-9.55 275.62-9.75 274.52-9.95 273.47-10.35L273.47-10.35Q272.37-9.4 272.37-8.5L272.37-8.5Q272.37-8.05 272.55-7.65 272.72-7.25 273.27-6.95 273.82-6.65 274.92-6.43 276.02-6.2 277.92-6.1L277.92-6.1Q280.47-5.95 282.52-5.53 284.57-5.1 286.02-4.2 287.47-3.3 288.25-1.9 289.02-0.5 289.02 1.6L289.02 1.6Q289.02 3.15 288.3 4.63 287.57 6.1 286.15 7.28 284.72 8.45 282.57 9.15 280.42 9.85 277.57 9.85L277.57 9.85Q272.47 9.85 269.77 7.9 267.07 5.95 267.07 2.75L267.07 2.75Q267.07 0.5 268.27-1.13 269.47-2.75 271.37-3.75L271.37-3.75Q270.07-4.4 269.55-5.35 269.02-6.3 269.02-7.45L269.02-7.45Q269.02-8.9 269.75-9.85 270.47-10.8 271.62-11.35L271.62-11.35Q270.02-12.45 268.95-14.23 267.87-16 267.87-18.55L267.87-18.55Q267.87-20.85 268.75-22.58 269.62-24.3 271.07-25.45 272.52-26.6 274.35-27.18 276.17-27.75 278.07-27.75L278.07-27.75 288.22-29.6ZM271.87-18.55L271.87-18.55Q271.87-15.75 273.47-14.1 275.07-12.45 277.77-12.45L277.77-12.45Q280.47-12.45 282-14.1 283.52-15.75 283.52-18.55L283.52-18.55Q283.52-21.35 282.1-23.1 280.67-24.85 278.02-24.85L278.02-24.85Q276.67-24.85 275.55-24.4 274.42-23.95 273.6-23.13 272.77-22.3 272.32-21.13 271.87-19.95 271.87-18.55ZM276.32-2.6L276.32-2.6Q275.52-2.65 274.87-2.75 274.22-2.85 273.62-2.95L273.62-2.95Q272.47-2 271.77-0.83 271.07 0.35 271.07 2.1L271.07 2.1Q271.07 3.05 271.4 3.95 271.72 4.85 272.47 5.58 273.22 6.3 274.45 6.73 275.67 7.15 277.52 7.15L277.52 7.15Q279.67 7.15 281.07 6.6 282.47 6.05 283.3 5.25 284.12 4.45 284.45 3.53 284.77 2.6 284.77 1.85L284.77 1.85Q284.77 0.9 284.45 0.15 284.12-0.6 283.22-1.13 282.32-1.65 280.67-2.02 279.02-2.4 276.32-2.6ZM299.07-31.9L294.47-31.9 294.47-36.75 299.07-36.75 299.07-31.9ZM298.77 0L294.77 0 294.77-27 298.77-27 298.77 0ZM310.77 0L306.77 0 306.77-27 310.17-27 310.47-23.45Q312.07-25.8 314.19-26.78 316.32-27.75 318.32-27.75L318.32-27.75Q320.07-27.75 321.52-27.28 322.97-26.8 323.99-25.7 325.02-24.6 325.59-22.83 326.17-21.05 326.17-18.45L326.17-18.45 326.17 0 322.17 0 322.17-17.7Q322.17-19.65 321.87-20.98 321.57-22.3 320.99-23.08 320.42-23.85 319.52-24.18 318.62-24.5 317.42-24.5L317.42-24.5Q315.42-24.5 313.77-23.3 312.12-22.1 310.77-20L310.77-20 310.77 0ZM350.61-6.5L353.76-4.55Q352.46-2.5 350.11-1 347.76 0.5 344.26 0.5L344.26 0.5Q341.81 0.5 339.81-0.33 337.81-1.15 336.36-2.85 334.91-4.55 334.11-7.13 333.31-9.7 333.31-13.25L333.31-13.25Q333.31-17.05 334.14-19.8 334.96-22.55 336.44-24.33 337.91-26.1 339.89-26.93 341.86-27.75 344.11-27.75L344.11-27.75Q346.61-27.75 348.49-26.93 350.36-26.1 351.61-24.28 352.86-22.45 353.49-19.6 354.11-16.75 354.11-12.7L354.11-12.7 337.41-12.7Q337.46-9.85 338.04-7.93 338.61-6 339.56-4.85 340.51-3.7 341.79-3.2 343.06-2.7 344.51-2.7L344.51-2.7Q345.71-2.7 346.69-3.08 347.66-3.45 348.41-4 349.16-4.55 349.71-5.23 350.26-5.9 350.61-6.5L350.61-6.5ZM344.11-24.65L344.11-24.65Q341.31-24.65 339.61-22.55 337.91-20.45 337.51-15.9L337.51-15.9 349.96-15.9Q349.86-18.35 349.44-20.03 349.01-21.7 348.26-22.73 347.51-23.75 346.49-24.2 345.46-24.65 344.11-24.65ZM377.31-6.5L380.46-4.55Q379.16-2.5 376.81-1 374.46 0.5 370.96 0.5L370.96 0.5Q368.51 0.5 366.51-0.33 364.51-1.15 363.06-2.85 361.61-4.55 360.81-7.13 360.01-9.7 360.01-13.25L360.01-13.25Q360.01-17.05 360.84-19.8 361.66-22.55 363.14-24.33 364.61-26.1 366.59-26.93 368.56-27.75 370.81-27.75L370.81-27.75Q373.31-27.75 375.19-26.93 377.06-26.1 378.31-24.28 379.56-22.45 380.19-19.6 380.81-16.75 380.81-12.7L380.81-12.7 364.11-12.7Q364.16-9.85 364.74-7.93 365.31-6 366.26-4.85 367.21-3.7 368.49-3.2 369.76-2.7 371.21-2.7L371.21-2.7Q372.41-2.7 373.39-3.08 374.36-3.45 375.11-4 375.86-4.55 376.41-5.23 376.96-5.9 377.31-6.5L377.31-6.5ZM370.81-24.65L370.81-24.65Q368.01-24.65 366.31-22.55 364.61-20.45 364.21-15.9L364.21-15.9 376.66-15.9Q376.56-18.35 376.14-20.03 375.71-21.7 374.96-22.73 374.21-23.75 373.19-24.2 372.16-24.65 370.81-24.65ZM391.56 0L387.56 0 387.56-27 391.21-27 391.36-23.2Q392.36-25.45 393.91-26.55 395.46-27.65 397.36-27.65L397.36-27.65Q398.06-27.65 398.56-27.6 399.06-27.55 399.76-27.3L399.76-27.3 398.76-23.55Q398.31-23.65 397.83-23.73 397.36-23.8 396.76-23.8L396.76-23.8Q395.76-23.8 394.98-23.38 394.21-22.95 393.58-22.2 392.96-21.45 392.46-20.48 391.96-19.5 391.56-18.45L391.56-18.45 391.56 0Z" opacity="1" transform="matrix(1,0,0,1,0,0)" fill="#000000" class="slogan-text-1" data-fill-palette-color="secondary" id="text-1"></path></svg></g></svg></g></svg></g></svg></g></svg></g></svg></g></svg></g><g><path d="M245.816 0c68.262 0 123.6 55.338 123.6 123.6 0 68.262-55.338 123.6-123.6 123.6-47.5 0-88.743-26.795-109.436-66.094l2.99 0c20.459 37.79 60.455 63.457 106.446 63.456 66.806 0 120.962-54.157 120.962-120.962 0-66.806-54.157-120.962-120.962-120.962-45.991 0-85.986 25.666-106.446 63.456l-2.99 0c20.693-39.299 61.936-66.094 109.436-66.094z" fill="#000000" stroke="transparent" data-fill-palette-color="tertiary"></path></g></svg></g><defs></defs></svg><rect width="395.52" height="247.2" fill="none" stroke="none" visibility="hidden"></rect></g></svg></g></svg>